<svg width="1310" height="3721" viewBox="0 0 1310 3721" fill="none" xmlns="http://www.w3.org/2000/svg">
<path d="M137.391 3.10754C164.173 72.4273 165.346 112.186 239.44 125.658C312.504 138.942 395.258 134.314 469.963 134.314C649.957 134.314 830.987 74.2836 1012.56 103.335C1074.21 113.2 1073.21 155.507 1097.75 195.817C1121.69 235.148 1141.92 274.354 1145.58 322.012C1147.85 351.473 1162.84 618.138 1109.14 618.138C1096.84 618.138 1084.54 618.138 1072.24 618.138C1049.5 618.138 1055.13 604.59 1039.44 595.359C1002.03 573.358 987.263 560.735 941.03 560.735C845.794 560.735 738.953 567.932 649.46 598.548C551.808 631.956 439.653 657.57 336.023 659.14C279.539 659.996 213.883 669.128 159.258 657.318C113.743 647.476 130.649 760.239 127.824 789.435C119.998 870.298 58.5034 943.226 23.4962 1014.49C-27.6767 1118.66 24.5572 1212.16 116.89 1273.71C183.993 1318.45 130.206 1456.41 220.761 1482.82C278.095 1499.55 355.903 1487.38 414.382 1487.38C490.926 1487.38 556.28 1477.7 630.326 1469.16C716.587 1459.2 799.176 1442.23 883.627 1419.04C979.115 1392.83 1059.09 1347.97 1158.8 1347.97C1196.59 1347.97 1243.17 1340.73 1278.61 1353.9C1330.17 1373.05 1298.83 1422.73 1285.9 1455.03C1267.42 1501.25 1281.62 1554.03 1267.22 1602.19C1247.75 1667.34 1221.69 1749.3 1181.58 1804.46C1131.02 1873.97 1041.23 1916.36 998.433 1991.25C983.38 2017.59 920.103 2047.21 891.828 2057.31C874.725 2063.42 861.122 2069.61 842.625 2069.61C691.202 2069.61 538.602 2122.11 392.514 2156.17C302.966 2177.05 34.5173 2159.68 47.6418 2310.61C58.4413 2434.8 14.3846 2557.54 14.3846 2684.64C14.3846 2710.67 18.2991 2741.34 49.0086 2742.04C102.398 2743.26 100.87 2751.12 145.591 2777.58C193.966 2806.19 260.996 2799.45 315.066 2799.45C356.07 2799.45 398.041 2799.01 435.339 2779.4C464.981 2763.81 483.583 2735.04 511.876 2717.9C660.841 2627.61 813.63 2609.15 981.121 2646.37C1088.63 2670.26 1209.16 2682.52 1310.96 2723.82C1437.2 2775.03 1331.8 2828.43 1301.85 2899.22C1283.02 2943.73 1268.17 2990.42 1242.62 3031.79C1215.22 3076.16 1184.88 3114.99 1163.81 3163.45C1132.42 3235.64 1122.48 3316.06 1101.85 3391.7C1075.02 3490.08 1081.81 3594.88 956.975 3594.88C920.382 3594.88 882.65 3603.19 846.726 3608.1C728.677 3624.23 611.509 3630.83 492.742 3637.71C438.408 3640.85 382.142 3659.49 328.733 3670.51C308.73 3674.64 82.6259 3706.77 88.1883 3717.89" stroke="black" stroke-width="5" stroke-linecap="round"/>
</svg>
