<svg width="1210" height="765" viewBox="0 0 1210 765" fill="none" xmlns="http://www.w3.org/2000/svg">
<path d="M3.48931 2.19519C3.44836 12.9238 1.28212 23.8567 3.36646 34.3809C10.5904 70.8558 29.6754 99.5136 50.5394 129.709C58.8438 141.728 102.039 211.198 127.441 209.928C140.32 209.284 151.843 205.234 163.926 201.206C188.44 193.035 214.17 188.716 239.722 184.499C276.527 178.424 313.371 174.095 349.792 165.581C380.666 158.363 410.313 148.559 441.804 143.714C494.022 135.68 546.711 131.359 599.293 126.515C682.666 118.836 766.285 114.35 850.022 113.248C901.53 112.57 955.353 113.615 1005.18 127.99C1047.94 140.328 1098.35 155.019 1135.52 180.199C1160.79 197.319 1180.24 224.93 1192.52 252.556C1210.08 292.07 1215.5 336.788 1192.15 375.156C1183.81 388.85 1173.19 400.882 1164.51 414.344C1160.32 420.835 1157.12 425.455 1149.4 428.225C1122.31 437.943 1091.89 441.133 1063.41 443.827C988.873 450.877 914.676 436.186 840.563 433.631C696.9 428.677 552.376 429.945 408.636 429.945C343.805 429.945 278.548 431.936 213.802 435.596C159.251 438.68 100.288 434.194 48.2053 452.795C40.0106 455.721 27.4387 458.084 21.4248 465.079C5.34227 483.788 27.5804 522.77 35.4293 539.524C49.3542 569.248 65.669 598.405 83.8307 625.762C93.3715 640.134 103.771 656.156 118.596 665.687C141.034 680.111 175.845 676.847 201.272 679.323C252.905 684.351 301.897 684.82 353.601 678.463C384.786 674.629 415.83 669.774 446.964 665.564C543.635 652.491 640.631 645.903 738.109 641.978C814.462 638.903 922.464 636.524 1000.02 635.59C1023.47 635.307 1091.46 634.571 1123.11 636.573C1136.86 637.442 1155.58 639.392 1167.09 648.366C1193.05 668.607 1200.99 688.381 1205.17 720.599C1206.1 727.759 1210.97 765.107 1201.98 762.858" stroke="black" stroke-width="3" stroke-linecap="round"/>
</svg>
