<svg width="1388" height="4275" viewBox="0 0 1388 4275" fill="none" xmlns="http://www.w3.org/2000/svg">
<path d="M463.601 2.91113C474.09 36.7087 491.163 91.7907 522.826 114.072C536.693 123.83 571.696 117.717 586.607 117.717C713.723 117.717 838.09 117.008 964.737 109.972C1023.18 106.725 1082.1 104.371 1140.59 101.772C1207.81 98.7842 1272.81 117.717 1339.68 117.717C1401.14 117.717 1382.05 156.886 1382.05 199.721C1382.05 273.467 1389.3 350.282 1377.95 422.954C1372.09 460.431 1370.35 500.574 1345.14 531.382C1330.83 548.882 1309.7 541.761 1291.84 554.161C1257.98 577.675 1228.25 591.551 1197.54 618.853C1175.81 638.166 1164.76 667.901 1140.13 686.734C1116.68 704.67 1081.67 699.945 1054.03 699.945C927.99 699.945 823.721 820.981 699.591 822.951C584.242 824.782 465.017 824.738 349.707 832.974C290.822 837.18 116.848 838.169 132.396 934.568C159.901 1105.1 37.6068 1256.02 47.2029 1431.15C51.0406 1501.19 100.022 1504.87 139.23 1548.69C156.332 1567.8 169.537 1587.44 188.432 1605.63C228.1 1643.83 274.365 1667.59 330.572 1667.59C406.672 1667.59 501.127 1659.23 574.307 1637.98C633.181 1620.89 691.256 1593.18 741.048 1557.8C804.229 1512.91 913.733 1510.81 989.338 1505.41C1046 1501.36 1117.73 1511.74 1146.97 1568.28C1170.05 1612.89 1170.88 1675.72 1175.21 1725C1184.32 1828.62 1180.01 1971.84 1110.52 2057.11C1090.23 2082.01 1062.64 2098.5 1041.27 2122.72C1020.84 2145.88 998.013 2167.79 968.837 2179.21C906.976 2203.41 824.882 2193.91 759.727 2198.8C559.997 2213.78 369.055 2219.8 178.409 2292.65C80.7313 2329.97 4.3786 2413.41 4.3786 2520.44C4.3786 2562.28 -3.2201 2609.85 21.6906 2646.17C37.6072 2669.39 59.9763 2678.31 84.5603 2689.91C121.349 2707.26 116.827 2708.25 168.387 2718.61C324.27 2749.95 485.697 2760.06 644.01 2770.09C774.493 2778.36 906.492 2772.17 1036.72 2782.85C1110.28 2788.88 1203.48 2849.49 1236.26 2917.24C1258.19 2962.55 1250.84 3033.4 1250.84 3081.71C1250.84 3148.67 1249.33 3213.55 1238.08 3279.43C1221.73 3375.19 1208.14 3471.96 1193.44 3568.26C1186.87 3611.25 1189.73 3707.16 1131.48 3709.49C1109.18 3710.39 1089.87 3713.49 1067.7 3715.87C910.382 3732.79 756.065 3725.9 598.908 3735.01C517.154 3739.75 419.757 3754.91 341.051 3775.55C263.229 3795.96 261.859 3849.52 257.68 3919.52C252.035 4014.07 206.065 4099.62 201.644 4194.68C198.866 4254.42 213.619 4243.85 263.147 4252.54C451.24 4285.54 639.706 4275.92 827.152 4230.67C925.962 4206.82 1032.76 4187.46 1134.67 4198.78C1196.05 4205.6 1259.39 4236.1 1316.44 4258.92" stroke="black" stroke-width="5" stroke-linecap="round"/>
</svg>
