<svg width="1468" height="4410" viewBox="0 0 1468 4410" fill="none" xmlns="http://www.w3.org/2000/svg">
<path d="M13.9778 2.90515C51.3025 52.6714 78.8498 94.6837 136.073 121.355C186.332 144.781 226.764 184.492 276.391 206.549C306 219.708 339.578 216.116 371.151 216.116C460.797 216.116 550.052 209.328 639.486 203.815C750.167 196.992 860.93 191.844 971.603 185.136C1020.04 182.201 1070.19 180.126 1118.3 187.414C1160.64 193.829 1209.39 189.778 1248.59 209.738C1292.04 231.855 1290.08 297.089 1293.24 338.211C1301.61 446.975 1328.46 558.853 1316.02 668.049C1309.68 723.699 1301.44 772.946 1301.44 829.324C1301.44 864.707 1282.53 855.747 1252.24 855.747C1149.42 855.747 1046.91 878.462 947.002 900.394C883.11 914.419 825.858 934.416 760.215 939.573C566.478 954.796 366.51 968.227 176.164 1006.54C46.9204 1032.56 28.6671 1123.09 10.7888 1234.33C-2.35547 1316.12 5.77739 1403.8 5.77739 1486.27C5.77739 1587.64 7.66667 1688.25 17.6224 1789.23C21.1498 1825 21.3553 1864.56 38.579 1897.2C47.459 1914.02 62.5914 1906.71 71.3806 1917.7C79.9777 1928.45 131.283 1925.17 145.184 1928.18C260.91 1953.2 393.878 1910.39 507.824 1894.46C657.364 1873.56 805.127 1843.71 956.113 1833.42C1019.29 1829.11 1080.34 1835.52 1142.44 1847.54C1162.92 1851.5 1209.32 1849.73 1225.82 1866.22C1234.89 1875.3 1240.64 1892.44 1246.77 1902.67C1278 1954.72 1313.64 2003.88 1347.91 2053.92C1374.35 2092.52 1383.45 2111.94 1383.45 2155.97C1383.45 2202.82 1377.96 2253.11 1388 2299.02C1416.08 2427.37 1424.45 2561.18 1424.45 2693.09C1424.45 2764.01 1424.45 2834.93 1424.45 2905.85C1424.45 2962.62 1427.21 2962.02 1368.87 2969.63C1355.7 2971.35 1346.01 2966.07 1333.33 2963.25C1281.94 2951.83 1227.48 2955.05 1175.25 2955.05C1041.76 2955.05 909.824 2945.1 776.615 2940.47C585.425 2933.83 391.563 2936.58 226.733 3049.36C162.368 3093.39 166.446 3183.4 155.207 3253C146.624 3306.15 141.76 3360.31 124.683 3411.54C115.548 3438.94 120.583 3473.25 120.583 3501.74C120.583 3568.56 120.583 3635.38 120.583 3702.2C120.583 3785.23 94.1509 3916.68 202.132 3938.64C405.678 3980.04 613.332 3914.26 813.973 3891.72C995.553 3871.32 1174.06 3848.89 1357.02 3848.89C1457.29 3848.89 1473.22 3902.72 1461.8 3997.41C1449.2 4101.93 1430.9 4210.38 1412.15 4314.04C1408.67 4333.25 1405.08 4395.7 1383.45 4406.52" stroke="black" stroke-width="5" stroke-linecap="round"/>
</svg>
