<svg width="1232" height="4014" viewBox="0 0 1232 4014" fill="none" xmlns="http://www.w3.org/2000/svg">
<path d="M408.2 1.92529C397.758 71.9529 368.032 168.245 385.422 239.737C393.191 271.68 438.963 278.805 466.059 284.384C500.717 291.519 537.026 288.939 572.208 288.939C622.773 288.939 660.466 262.951 708.882 257.96C863.033 242.068 1115.55 236.537 1182.23 416.046C1199.56 462.713 1195.44 513.961 1195.44 562.742C1195.44 639.502 1193.31 714.926 1175.39 790.075C1152.88 884.491 1129.63 1018.78 1014.12 1018.78C854.213 1018.78 676.716 998.215 520.273 1028.8C454.112 1041.73 396.005 1059.78 328.019 1059.78C294.662 1059.78 263.932 1062.78 231.892 1072.53C146.809 1098.43 68.7835 1194.13 19.1368 1262.51C-22.8963 1320.4 20.4159 1385.94 47.3826 1440.64C65.915 1478.23 76.3514 1518.85 94.7628 1556.36C112.466 1592.42 143.616 1610.61 166.288 1642.01C198.064 1686 258.33 1716.2 310.707 1727.65C394.424 1745.97 500.732 1735.06 584.965 1725.83C692.207 1714.08 800.301 1702.57 907.514 1687.56C974.985 1678.12 1079.67 1666.34 1146.24 1684.83C1208.53 1702.13 1197.31 1785.23 1211.84 1834.26C1235.21 1913.13 1230.15 2012.2 1226.42 2093.03C1221.73 2194.57 1195.19 2276.94 1142.14 2362.73C1095.23 2438.57 1046.39 2501.32 953.072 2503.05C758.441 2506.65 561.098 2450 368.565 2482.09C174.993 2514.35 146.687 2718.3 215.947 2875.71C240.358 2931.19 293.892 2982.28 354.442 2988.69C515.112 3005.71 680.372 2995.07 841.911 2995.07C919.409 2995.07 988.989 2996.3 1054.21 3042.45C1118.54 3087.98 1163.64 3144.25 1170.38 3225.14C1176.22 3295.13 1187.63 3385.67 1119.81 3427.87C1028.79 3484.51 896.09 3479.82 795.442 3500.31C731.329 3513.36 668.107 3529.01 603.188 3537.67C531.083 3547.28 498.968 3549.41 422.779 3563.63C397.164 3568.42 261.987 3581.48 247.837 3629.24C240.496 3654.01 311.821 3711.37 326.196 3729.01C373.566 3787.14 459.382 3809.71 529.384 3831.51C567.214 3843.3 598.05 3859.63 637.812 3866.14C675.907 3872.37 717.411 3875.78 753.529 3889.83C799.861 3907.85 851.178 3913.62 894.758 3937.66C924.913 3954.3 957.03 3970.17 992.251 3970.92C1074.09 3972.66 1147.74 4011.92 1228.24 4011.92" stroke="black" stroke-width="3" stroke-linecap="round"/>
</svg>
