<svg width="1314" height="3729" viewBox="0 0 1314 3729" fill="none" xmlns="http://www.w3.org/2000/svg">
<g filter="url(#filter0_d_6_9)">
<path d="M141.391 3.10754C168.173 72.4273 169.346 112.186 243.44 125.658C316.504 138.942 399.258 134.314 473.963 134.314C653.957 134.314 834.987 74.2836 1016.56 103.335C1078.21 113.2 1077.21 155.507 1101.75 195.817C1125.69 235.148 1145.92 274.354 1149.58 322.012C1151.85 351.473 1166.84 618.138 1113.14 618.138C1100.84 618.138 1088.54 618.138 1076.24 618.138C1053.5 618.138 1059.13 604.59 1043.44 595.359C1006.03 573.358 991.263 560.735 945.03 560.735C849.794 560.735 742.953 567.932 653.46 598.548C555.808 631.956 443.653 657.57 340.023 659.14C283.539 659.996 217.883 669.128 163.258 657.318C117.743 647.476 134.649 760.239 131.824 789.435C123.998 870.298 62.5034 943.226 27.4962 1014.49C-23.6767 1118.66 28.5572 1212.16 120.89 1273.71C187.993 1318.45 134.206 1456.41 224.761 1482.82C282.095 1499.55 359.903 1487.38 418.382 1487.38C494.926 1487.38 560.28 1477.7 634.326 1469.16C720.587 1459.2 803.176 1442.23 887.627 1419.04C983.115 1392.83 1063.09 1347.97 1162.8 1347.97C1200.59 1347.97 1247.17 1340.73 1282.61 1353.9C1334.17 1373.05 1302.83 1422.73 1289.9 1455.03C1271.42 1501.25 1285.62 1554.03 1271.22 1602.19C1251.75 1667.34 1225.69 1749.3 1185.58 1804.46C1135.02 1873.97 1045.23 1916.36 1002.43 1991.25C987.38 2017.59 924.103 2047.21 895.828 2057.31C878.725 2063.42 865.122 2069.61 846.625 2069.61C695.202 2069.61 542.602 2122.11 396.514 2156.17C306.966 2177.05 38.5173 2159.68 51.6418 2310.61C62.4413 2434.8 18.3846 2557.54 18.3846 2684.64C18.3846 2710.67 22.2991 2741.34 53.0086 2742.04C106.398 2743.26 104.87 2751.12 149.591 2777.58C197.966 2806.19 264.996 2799.45 319.066 2799.45C360.07 2799.45 402.041 2799.01 439.339 2779.4C468.981 2763.81 487.583 2735.04 515.876 2717.9C664.841 2627.61 817.63 2609.15 985.121 2646.37C1092.63 2670.26 1213.16 2682.52 1314.96 2723.82C1441.2 2775.03 1335.8 2828.43 1305.85 2899.22C1287.02 2943.73 1272.17 2990.42 1246.62 3031.79C1219.22 3076.16 1188.88 3114.99 1167.81 3163.45C1136.42 3235.64 1126.48 3316.06 1105.85 3391.7C1079.02 3490.08 1085.81 3594.88 960.975 3594.88C924.382 3594.88 886.65 3603.19 850.726 3608.1C732.677 3624.23 615.509 3630.83 496.742 3637.71C442.408 3640.85 386.142 3659.49 332.733 3670.51C312.73 3674.64 86.6259 3706.77 92.1883 3717.89" stroke="black" stroke-width="5" stroke-linecap="round"/>
</g>
</svg>
