<svg width="1622" height="2810" viewBox="0 0 1622 2810" fill="none" xmlns="http://www.w3.org/2000/svg">
<path d="M3.37457 3.10547C41.0164 73.3701 91.0239 134.022 137.314 198.548C182.313 261.274 201.298 286.292 282.644 290.12C492.945 300.016 724.878 279.447 930.931 230.894C1030.65 207.397 1137.21 159.304 1238.9 151.168C1298.27 146.419 1359.24 150.713 1418.86 150.713C1439.94 150.713 1461.1 150.211 1482.18 150.713C1503.54 151.221 1521.96 168.659 1543.23 173.492C1599.97 186.388 1602.45 219.029 1602.45 271.896C1602.45 375.717 1612.31 479.518 1618.4 583.056C1621.66 638.443 1581.23 635.443 1540.95 659.138C1449.64 712.851 1317.5 733.66 1212.48 722.919C1180.92 719.691 1145.03 713.068 1114.53 703.784C1091 696.625 1079.95 679.854 1055.3 675.083C1010.5 666.412 969.444 659.138 923.642 659.138C892.411 659.138 853.685 665.819 824.326 653.671C729.454 614.414 590.34 619.641 489.021 632.714C466.595 635.608 453.897 641.119 434.351 646.382C385.377 659.567 325.689 636.157 282.188 667.794C197.672 729.26 123.611 746.144 106.335 864.603C82.3298 1029.21 85.3786 1207.67 85.3786 1374.4C85.3786 1545.77 342.218 1520.86 459.864 1506.51C544.187 1496.23 628.11 1482.58 712.254 1470.98C750.219 1465.74 777.726 1444.86 813.392 1434.08C863.767 1418.85 914.007 1400.92 966.466 1396.72C984.097 1395.31 1012.38 1392.44 1028.42 1384.42C1049.2 1374.03 1068.75 1368.36 1089.47 1357.99C1136.78 1334.34 1161.16 1287.62 1205.19 1257.77C1273.58 1211.4 1321.68 1167.56 1404.73 1167.56C1478.64 1167.56 1526.25 1282.8 1540.49 1339.77C1572.25 1466.78 1560.76 1627.08 1543.23 1756.17C1535.18 1815.45 1495 1841.18 1443.91 1865.51C1312.43 1928.12 1154.95 1977.03 1048.47 2077.81C941.453 2179.09 767.9 2040.3 650.295 2030.43C486.91 2016.71 374.107 2085.93 240.275 2168.92C190.834 2199.58 126.325 2231.99 118.18 2295.12C110.328 2355.98 96.6378 2415.61 89.9344 2476.89C75.9532 2604.72 136.331 2758.36 272.621 2794.43C409.307 2830.61 587.508 2780.02 720.454 2751.15C876.603 2717.25 1036.15 2679.24 1196.08 2669.15C1293.22 2663.02 1390.77 2672.98 1487.65 2666.41C1503.69 2665.33 1508.05 2664.44 1512.25 2651.84" stroke="black" stroke-width="5" stroke-linecap="round"/>
</svg>
